<mxfile host="Electron" agent="Mozilla/5.0 (Windows NT 10.0; Win64; x64) AppleWebKit/537.36 (KHTML, like Gecko) draw.io/26.0.9 Chrome/128.0.6613.186 Electron/32.2.5 Safari/537.36" version="26.0.9">
  <diagram name="Page-1" id="QIYJhtU-N7Jg_gJe7VQj">
    <mxGraphModel dx="2868" dy="1672" grid="1" gridSize="10" guides="1" tooltips="1" connect="1" arrows="1" fold="1" page="1" pageScale="1" pageWidth="850" pageHeight="1050" math="0" shadow="0">
      <root>
        <mxCell id="0" />
        <mxCell id="1" parent="0" />
        <mxCell id="NWAItUNXVhOZpdJJ9nui-2" value="" style="edgeStyle=orthogonalEdgeStyle;rounded=0;orthogonalLoop=1;jettySize=auto;html=1;fontStyle=1;fontFamily=Courier New;" edge="1" parent="1" source="GgAsPpkhO3hSO96ekQsg-1" target="NWAItUNXVhOZpdJJ9nui-1">
          <mxGeometry relative="1" as="geometry" />
        </mxCell>
        <mxCell id="GgAsPpkhO3hSO96ekQsg-1" value="reload_balance(username, amount)" style="ellipse;whiteSpace=wrap;html=1;fontStyle=1;fontFamily=Courier New;" parent="1" vertex="1">
          <mxGeometry x="343" width="165" height="80" as="geometry" />
        </mxCell>
        <mxCell id="GgAsPpkhO3hSO96ekQsg-30" value="EXIT" style="ellipse;whiteSpace=wrap;html=1;fontStyle=1;fontFamily=Courier New;" parent="1" vertex="1">
          <mxGeometry x="376" y="930" width="120" height="80" as="geometry" />
        </mxCell>
        <mxCell id="NWAItUNXVhOZpdJJ9nui-4" value="" style="edgeStyle=orthogonalEdgeStyle;rounded=0;orthogonalLoop=1;jettySize=auto;html=1;fontStyle=1;fontFamily=Courier New;" edge="1" parent="1" source="NWAItUNXVhOZpdJJ9nui-1" target="NWAItUNXVhOZpdJJ9nui-3">
          <mxGeometry relative="1" as="geometry" />
        </mxCell>
        <mxCell id="NWAItUNXVhOZpdJJ9nui-1" value="EXECUTE SQL: &#39;UPDATE account SET balance = balance + ? WHERE username = ?&#39; WITH (amount, username)" style="whiteSpace=wrap;html=1;fontStyle=1;fontFamily=Courier New;" vertex="1" parent="1">
          <mxGeometry x="342.5" y="120" width="165.5" height="90" as="geometry" />
        </mxCell>
        <mxCell id="NWAItUNXVhOZpdJJ9nui-6" value="" style="edgeStyle=orthogonalEdgeStyle;rounded=0;orthogonalLoop=1;jettySize=auto;html=1;fontStyle=1;fontFamily=Courier New;" edge="1" parent="1" source="NWAItUNXVhOZpdJJ9nui-3" target="NWAItUNXVhOZpdJJ9nui-5">
          <mxGeometry relative="1" as="geometry" />
        </mxCell>
        <mxCell id="NWAItUNXVhOZpdJJ9nui-3" value="commit changes" style="whiteSpace=wrap;html=1;fontStyle=1;fontFamily=Courier New;" vertex="1" parent="1">
          <mxGeometry x="365" y="250" width="120" height="60" as="geometry" />
        </mxCell>
        <mxCell id="NWAItUNXVhOZpdJJ9nui-8" value="" style="edgeStyle=orthogonalEdgeStyle;rounded=0;orthogonalLoop=1;jettySize=auto;html=1;fontStyle=1;fontFamily=Courier New;" edge="1" parent="1" source="NWAItUNXVhOZpdJJ9nui-5" target="NWAItUNXVhOZpdJJ9nui-7">
          <mxGeometry relative="1" as="geometry" />
        </mxCell>
        <mxCell id="NWAItUNXVhOZpdJJ9nui-5" value="print &#39;your balance has been reloaded by &#39; + amount" style="shape=parallelogram;perimeter=parallelogramPerimeter;whiteSpace=wrap;html=1;fixedSize=1;fontStyle=1;fontFamily=Courier New;" vertex="1" parent="1">
          <mxGeometry x="335.5" y="360" width="180" height="70" as="geometry" />
        </mxCell>
        <mxCell id="NWAItUNXVhOZpdJJ9nui-10" value="" style="edgeStyle=orthogonalEdgeStyle;rounded=0;orthogonalLoop=1;jettySize=auto;html=1;fontStyle=1;fontFamily=Courier New;" edge="1" parent="1" source="NWAItUNXVhOZpdJJ9nui-7" target="NWAItUNXVhOZpdJJ9nui-9">
          <mxGeometry relative="1" as="geometry" />
        </mxCell>
        <mxCell id="NWAItUNXVhOZpdJJ9nui-12" value="" style="edgeStyle=orthogonalEdgeStyle;rounded=0;orthogonalLoop=1;jettySize=auto;html=1;fontStyle=1;fontFamily=Courier New;" edge="1" parent="1" source="NWAItUNXVhOZpdJJ9nui-7" target="NWAItUNXVhOZpdJJ9nui-11">
          <mxGeometry relative="1" as="geometry" />
        </mxCell>
        <mxCell id="NWAItUNXVhOZpdJJ9nui-7" value="if amount &amp;gt; 50:" style="rhombus;whiteSpace=wrap;html=1;fontStyle=1;fontFamily=Courier New;" vertex="1" parent="1">
          <mxGeometry x="385" y="480" width="80" height="80" as="geometry" />
        </mxCell>
        <mxCell id="NWAItUNXVhOZpdJJ9nui-20" style="edgeStyle=orthogonalEdgeStyle;rounded=0;orthogonalLoop=1;jettySize=auto;html=1;exitX=0.5;exitY=1;exitDx=0;exitDy=0;entryX=1;entryY=0.5;entryDx=0;entryDy=0;fontStyle=1;fontFamily=Courier New;" edge="1" parent="1" source="NWAItUNXVhOZpdJJ9nui-9" target="NWAItUNXVhOZpdJJ9nui-17">
          <mxGeometry relative="1" as="geometry" />
        </mxCell>
        <mxCell id="NWAItUNXVhOZpdJJ9nui-9" value="print message" style="shape=parallelogram;perimeter=parallelogramPerimeter;whiteSpace=wrap;html=1;fixedSize=1;fontStyle=1;fontFamily=Courier New;" vertex="1" parent="1">
          <mxGeometry x="500" y="580" width="160" height="60" as="geometry" />
        </mxCell>
        <mxCell id="NWAItUNXVhOZpdJJ9nui-14" value="" style="edgeStyle=orthogonalEdgeStyle;rounded=0;orthogonalLoop=1;jettySize=auto;html=1;fontStyle=1;fontFamily=Courier New;" edge="1" parent="1" source="NWAItUNXVhOZpdJJ9nui-11" target="NWAItUNXVhOZpdJJ9nui-13">
          <mxGeometry relative="1" as="geometry" />
        </mxCell>
        <mxCell id="NWAItUNXVhOZpdJJ9nui-16" value="" style="edgeStyle=orthogonalEdgeStyle;rounded=0;orthogonalLoop=1;jettySize=auto;html=1;fontStyle=1;fontFamily=Courier New;" edge="1" parent="1" source="NWAItUNXVhOZpdJJ9nui-11" target="NWAItUNXVhOZpdJJ9nui-15">
          <mxGeometry relative="1" as="geometry" />
        </mxCell>
        <mxCell id="NWAItUNXVhOZpdJJ9nui-11" value="if amount &amp;gt; 0:" style="rhombus;whiteSpace=wrap;html=1;fontStyle=1;fontFamily=Courier New;" vertex="1" parent="1">
          <mxGeometry x="240" y="570" width="80" height="80" as="geometry" />
        </mxCell>
        <mxCell id="NWAItUNXVhOZpdJJ9nui-19" style="edgeStyle=orthogonalEdgeStyle;rounded=0;orthogonalLoop=1;jettySize=auto;html=1;exitX=0.5;exitY=1;exitDx=0;exitDy=0;entryX=0.5;entryY=0;entryDx=0;entryDy=0;fontStyle=1;fontFamily=Courier New;" edge="1" parent="1" source="NWAItUNXVhOZpdJJ9nui-13" target="NWAItUNXVhOZpdJJ9nui-17">
          <mxGeometry relative="1" as="geometry" />
        </mxCell>
        <mxCell id="NWAItUNXVhOZpdJJ9nui-13" value="print message" style="shape=parallelogram;perimeter=parallelogramPerimeter;whiteSpace=wrap;html=1;fixedSize=1;fontStyle=1;fontFamily=Courier New;" vertex="1" parent="1">
          <mxGeometry x="361" y="660" width="150" height="60" as="geometry" />
        </mxCell>
        <mxCell id="NWAItUNXVhOZpdJJ9nui-18" style="edgeStyle=orthogonalEdgeStyle;rounded=0;orthogonalLoop=1;jettySize=auto;html=1;exitX=0.5;exitY=1;exitDx=0;exitDy=0;entryX=0;entryY=0.5;entryDx=0;entryDy=0;fontStyle=1;fontFamily=Courier New;" edge="1" parent="1" source="NWAItUNXVhOZpdJJ9nui-15" target="NWAItUNXVhOZpdJJ9nui-17">
          <mxGeometry relative="1" as="geometry" />
        </mxCell>
        <mxCell id="NWAItUNXVhOZpdJJ9nui-15" value="print message" style="shape=parallelogram;perimeter=parallelogramPerimeter;whiteSpace=wrap;html=1;fixedSize=1;fontStyle=1;fontFamily=Courier New;" vertex="1" parent="1">
          <mxGeometry x="80" y="660" width="120" height="60" as="geometry" />
        </mxCell>
        <mxCell id="NWAItUNXVhOZpdJJ9nui-21" style="edgeStyle=orthogonalEdgeStyle;rounded=0;orthogonalLoop=1;jettySize=auto;html=1;exitX=0.5;exitY=1;exitDx=0;exitDy=0;entryX=0.5;entryY=0;entryDx=0;entryDy=0;fontStyle=1;fontFamily=Courier New;" edge="1" parent="1" source="NWAItUNXVhOZpdJJ9nui-17" target="GgAsPpkhO3hSO96ekQsg-30">
          <mxGeometry relative="1" as="geometry" />
        </mxCell>
        <mxCell id="NWAItUNXVhOZpdJJ9nui-17" value="" style="ellipse;whiteSpace=wrap;html=1;aspect=fixed;fontStyle=1;fontFamily=Courier New;" vertex="1" parent="1">
          <mxGeometry x="425" y="831" width="22" height="22" as="geometry" />
        </mxCell>
      </root>
    </mxGraphModel>
  </diagram>
</mxfile>
